<?xml version="1.0" encoding="UTF-8"?>
<svg width="24" height="24" version="1.1" viewBox="0 0 24 24" xmlns="http://www.w3.org/2000/svg">
	<path d="m14 19h-4c-0.276 0-0.5 0.224-0.5 0.5s0.224 0.5 0.5 0.5h4c0.276 0 0.5-0.224 0.5-0.5s-0.224-0.5-0.5-0.5zm0 2h-4c-0.276 0-0.5 0.224-0.5 0.5s0.224 0.5 0.5 0.5h4c0.276 0 0.5-0.224 0.5-0.5s-0.224-0.5-0.5-0.5zm0.25 2h-4.5l1.188 0.782c0.154 0.138 0.38 0.218 0.615 0.218h0.895c0.234 0 0.461-0.08 0.615-0.218zm3.75-13.799c0 3.569-3.214 5.983-3.214 8.799h-1.989c-3e-3 -1.858 0.87-3.389 1.721-4.867 0.761-1.325 1.482-2.577 1.482-3.932 0-2.592-2.075-3.772-4.003-3.772-1.925 0-3.997 1.18-3.997 3.772 0 1.355 0.721 2.607 1.482 3.932 0.851 1.478 1.725 3.009 1.72 4.867h-1.988c0-2.816-3.214-5.23-3.214-8.799 0-3.723 2.998-5.772 5.997-5.772 3.001 0 6.003 2.051 6.003 5.772z" />
</svg>
