<?xml version="1.0" encoding="UTF-8"?>
<svg width="440" height="440" version="1.1" viewBox="0 0 440 440" xmlns="http://www.w3.org/2000/svg">
	<g transform="translate(-36,-36)">
		<path d="m74.5 36a38.5 38.5 0 0 0-38.5 38.5v363a38.5 38.5 0 0 0 38.5 38.5h363a38.5 38.5 0 0 0 38.5-38.5v-363a38.5 38.5 0 0 0-38.5-38.5zm316.97 36.03a50 50 0 0 1 48.53 49.97 50 50 0 0 1-100 0 50 50 0 0 1 51.47-49.97zm-135.47 133.97a50 50 0 0 1 0 100 50 50 0 0 1 0-100zm-132.53 134.03a50 50 0 0 1 48.53 49.97 50 50 0 0 1-100 0 50 50 0 0 1 51.47-49.97z" />
	</g>
</svg>
